<svg width="74" height="74" viewBox="0 0 74 74" fill="none" xmlns="http://www.w3.org/2000/svg">
<path d="M37.1854 73.6455C30.5609 73.6455 23.9365 73.6393 17.312 73.6476C13.3354 73.6528 9.7528 72.5059 6.63649 70.0061C4.13951 68.0042 2.3756 65.4754 1.33959 62.4426C0.764718 60.7584 0.464875 59.0215 0.461773 57.2453C0.4504 50.7086 0.459702 44.1718 0.458668 37.6341C0.458668 31.6812 0.447295 25.7293 0.458668 19.7764C0.46177 18.1336 0.476248 16.4878 0.577574 14.8492C0.710953 12.6931 1.37371 10.6653 2.39421 8.77315C4.19224 5.43803 6.8257 2.97757 10.2915 1.42905C12.7026 0.352533 15.242 -0.0170007 17.8641 0.00059619C21.516 0.0264739 25.1669 0.0171579 28.8188 0.0192282C34.5334 0.0212984 40.248 0.0192282 45.9626 0.0192282C49.5194 0.0192282 53.0761 0.0523517 56.6319 0.00680685C59.9633 -0.0356327 63.1023 0.626838 65.9663 2.36582C69.4239 4.46502 71.8205 7.43579 73.1295 11.2771C73.754 13.1103 74.0001 14.9962 74.0001 16.9246C73.998 25.0378 74.0001 33.151 73.9991 41.2642C73.9991 46.0485 74.0032 50.8317 73.9887 55.616C73.9856 56.7288 73.9515 57.8436 73.8646 58.9522C73.6982 61.0793 73.0427 63.075 72.0284 64.9392C69.9005 68.8489 66.6932 71.4863 62.4737 72.8744C60.5867 73.4955 58.6305 73.6642 56.6515 73.6559C53.0948 73.6414 49.539 73.6424 45.9822 73.6404C43.05 73.6383 40.1177 73.6404 37.1865 73.6404V73.6455H37.1854ZM13.2124 26.2903V26.842C13.2124 35.214 13.2124 43.586 13.2124 51.9579C13.2124 52.3492 13.4147 52.5448 13.8193 52.5448C16.6833 52.5448 19.5484 52.5448 22.4124 52.5448C34.3452 52.5448 46.278 52.5448 58.2107 52.5448C59.012 52.5448 59.8123 52.5448 60.6136 52.5448C61.0313 52.5448 61.2402 52.3423 61.2402 51.9372C61.2391 51.4207 61.2298 50.9042 61.2309 50.3877C61.234 42.5322 61.2371 34.6768 61.2412 26.8213C61.2412 26.6671 61.2412 26.5129 61.2412 26.282C61.0231 26.3938 60.8917 26.4549 60.7656 26.5263C55.2722 29.6451 49.7799 32.766 44.2866 35.8858C42.4358 36.9364 40.5799 37.9788 38.7374 39.0429C37.7283 39.6246 36.7388 39.6494 35.7358 39.0501C35.4567 38.8835 35.1682 38.7323 34.8859 38.5709C27.8148 34.5526 20.7436 30.5332 13.6725 26.5149C13.5474 26.4435 13.415 26.3866 13.2134 26.2882L13.2124 26.2903ZM15.2896 21.1469L15.2586 21.2473C15.4405 21.3591 15.6204 21.475 15.8065 21.5806C22.8157 25.5678 29.8258 29.5519 36.8318 33.5444C37.112 33.7038 37.323 33.7131 37.6094 33.5506C44.7084 29.5033 51.8137 25.4653 58.9169 21.4253C59.0244 21.3642 59.1216 21.2856 59.3212 21.1479H15.2906L15.2896 21.1469Z" fill="black"/>
</svg>
