<svg width="39" height="40" viewBox="0 0 39 40" fill="none" xmlns="http://www.w3.org/2000/svg">
<path d="M19.479 39.0545C15.966 39.0545 12.453 39.0512 8.94004 39.0556C6.83126 39.0583 4.93139 38.4501 3.2788 37.1244C1.95464 36.0628 1.01924 34.7218 0.469837 33.1135C0.16498 32.2204 0.00597203 31.2993 0.00432712 30.3573C-0.00170423 26.8909 0.0032289 23.4245 0.0026806 19.9575C0.0026806 16.8006 -0.00335075 13.6443 0.0026806 10.4875C0.00432551 9.61633 0.0120031 8.74354 0.0657369 7.8746C0.136468 6.7312 0.487928 5.65586 1.0291 4.65243C1.98261 2.8838 3.37914 1.57902 5.21705 0.757828C6.4957 0.18695 7.84233 -0.00901551 9.23283 0.000316162C11.1694 0.0140392 13.1055 0.00909891 15.0421 0.0101968C18.0726 0.0112946 21.1031 0.0101968 24.1336 0.0101968C26.0197 0.0101968 27.9059 0.0277623 29.7915 0.00360969C31.5581 -0.0188961 33.2228 0.332414 34.7416 1.2546C36.5751 2.36782 37.8461 3.94322 38.5403 5.98027C38.8714 6.95241 39.0019 7.95255 39.0019 8.97519C39.0008 13.2776 39.0019 17.5801 39.0014 21.8825C39.0014 24.4197 39.0036 26.9562 38.9959 29.4933C38.9942 30.0834 38.9761 30.6746 38.9301 31.2625C38.8418 32.3905 38.4942 33.4489 37.9563 34.4375C36.8279 36.5108 35.1271 37.9094 32.8894 38.6455C31.8888 38.9749 30.8514 39.0643 29.8019 39.0599C27.9158 39.0523 26.0301 39.0528 24.144 39.0517C22.589 39.0506 21.034 39.0517 19.4795 39.0517V39.0545H19.479ZM6.76601 13.9418V14.2344C6.76601 18.6741 6.76601 23.1138 6.76601 27.5534C6.76601 27.7609 6.8733 27.8647 7.08787 27.8647C8.60667 27.8647 10.126 27.8647 11.6448 27.8647C17.9728 27.8647 24.3008 27.8647 30.6288 27.8647C31.0537 27.8647 31.4781 27.8647 31.903 27.8647C32.1245 27.8647 32.2353 27.7573 32.2353 27.5425C32.2348 27.2686 32.2298 26.9946 32.2304 26.7207C32.232 22.555 32.2337 18.3892 32.2358 14.2234C32.2358 14.1416 32.2358 14.0599 32.2358 13.9374C32.1202 13.9967 32.0505 14.0291 31.9836 14.067C29.0705 15.7209 26.1579 17.3759 23.2448 19.0303C22.2633 19.5875 21.2791 20.1403 20.302 20.7045C19.7669 21.013 19.2421 21.0262 18.7103 20.7084C18.5622 20.62 18.4093 20.5399 18.2596 20.4542C14.5097 18.3233 10.7599 16.1919 7.01001 14.061C6.94367 14.0231 6.87348 13.9929 6.76656 13.9407L6.76601 13.9418ZM7.86755 11.2142L7.85111 11.2675C7.94761 11.3268 8.04301 11.3882 8.14171 11.4442C11.8587 13.5587 15.5762 15.6715 19.2915 17.7887C19.4401 17.8732 19.5519 17.8782 19.7038 17.792C23.4685 15.6457 27.2364 13.5043 31.0032 11.3619C31.0603 11.3295 31.1118 11.2878 31.2176 11.2148H7.8681L7.86755 11.2142Z" fill="black"/>
</svg>
