<svg width="71" height="71" viewBox="0 0 71 71" fill="none" xmlns="http://www.w3.org/2000/svg">
<path d="M35.4123 70.5983C28.493 70.5983 21.5737 70.6332 14.6544 70.5891C7.31295 70.5419 0.504352 63.9175 0.0964918 56.6149C-0.0787445 53.4828 0.0350054 50.3619 0.0514018 47.2338C0.10674 36.558 0.195895 25.8802 0.0964918 15.2054C0.0196338 7.12517 7.18895 -0.0306789 15.2683 9.89198e-05C28.6764 0.0513953 42.0856 0.0154879 55.4948 0.027799C63.7022 0.0349805 70.4401 6.79072 70.6676 14.9756C70.9074 23.5831 70.8203 32.1907 70.7741 40.7961C70.7495 45.3718 70.8705 49.9433 70.8356 54.5179C70.7793 61.8113 66.6156 67.6775 59.7394 69.9818C58.4307 70.4198 57.0801 70.5819 55.7007 70.5799C48.9383 70.5717 42.1747 70.5758 35.4123 70.5758C35.4123 70.584 35.4123 70.5912 35.4123 70.5994V70.5983ZM8.88905 35.3167H8.89725C8.89725 39.1916 8.86958 43.0665 8.90238 46.9404C8.97616 55.6208 15.8514 62.5109 24.5015 62.554C31.141 62.5869 37.7805 62.5571 44.42 62.5602C46.2892 62.5602 48.1369 62.6361 49.9989 62.157C56.8557 60.3955 61.8443 54.1383 61.8617 47.0687C61.8801 39.3588 61.8617 31.649 61.8699 23.9391C61.8709 22.6003 61.7274 21.284 61.3893 19.9913C59.559 12.9955 53.2761 8.12238 46.0484 8.10904C38.9723 8.09673 31.8963 8.10904 24.8212 8.10391C15.9651 8.09673 8.928 15.0761 8.89213 23.9268C8.87676 27.7227 8.88905 31.5197 8.88905 35.3156V35.3167Z" fill="black"/>
<path d="M56.2788 35.4756C56.2788 39.3495 56.2962 43.2235 56.2747 47.0963C56.2471 52.2126 51.6181 56.9165 46.5158 56.9483C39.2071 56.9935 31.8984 57.0027 24.5897 56.9637C19.0129 56.934 14.4834 52.3265 14.4732 46.7352C14.4578 39.1833 14.4578 31.6315 14.4803 24.0796C14.4978 18.436 19.1379 13.7372 24.7793 13.7013C31.7365 13.6572 38.6937 13.65 45.6509 13.7024C51.8129 13.7485 56.2809 18.2995 56.2983 24.4408C56.3096 28.1187 56.3003 31.7967 56.3003 35.4746H56.2788V35.4756ZM20.3677 34.8703C20.0531 43.3168 27.043 50.5199 35.5589 50.3834C43.6649 50.2541 50.2593 43.6944 50.4417 35.6121C50.6354 27.0805 43.545 20.0077 35.2843 20.2252C26.4733 20.456 20.3707 26.2331 20.3666 34.8714L20.3677 34.8703ZM21.0871 24.0294C22.8169 24.0294 24.2475 22.6444 24.2587 20.9567C24.27 19.1962 22.8517 17.7445 21.0922 17.7168C19.263 17.6891 17.8672 19.0187 17.8395 20.8182C17.8098 22.6946 19.1584 24.0294 21.0871 24.0294Z" fill="black"/>
<path d="M27.1426 34.8818C27.1948 29.9983 30.55 26.9842 35.8583 27.0539C39.9584 27.1073 43.6445 30.9966 43.6179 35.2408C43.5882 39.8739 39.7411 43.6247 35.0948 43.5508C30.7754 43.4821 27.0934 39.4677 27.1426 34.8818Z" fill="black"/>
</svg>
