<svg width="38" height="38" viewBox="0 0 38 38" fill="none" xmlns="http://www.w3.org/2000/svg">
<path d="M18.7792 37.4385C15.1099 37.4385 11.4406 37.457 7.77129 37.4336C3.87808 37.4086 0.267459 33.8956 0.0511699 30.0231C-0.0417585 28.3621 0.0185635 26.7071 0.0272585 25.0483C0.0566043 19.3868 0.103884 13.7243 0.0511699 8.06346C0.0104119 3.7785 3.81232 -0.0162691 8.09681 5.24575e-05C15.2072 0.0272551 22.3181 0.00821328 29.429 0.0147419C33.7815 0.0185503 37.3546 3.60114 37.4752 7.94159C37.6024 12.5062 37.5562 17.0708 37.5317 21.6343C37.5187 24.0608 37.5828 26.4851 37.5644 28.911C37.5345 32.7787 35.3265 35.8896 31.68 37.1115C30.986 37.3438 30.2697 37.4298 29.5383 37.4287C25.9521 37.4244 22.3654 37.4265 18.7792 37.4265C18.7792 37.4309 18.7792 37.4347 18.7792 37.4391V37.4385ZM4.71389 18.7285H4.71824C4.71824 20.7834 4.70357 22.8383 4.72096 24.8927C4.76009 29.4959 8.40603 33.1497 12.9932 33.1726C16.5142 33.19 20.0351 33.1742 23.5561 33.1759C24.5473 33.1759 25.5271 33.2161 26.5146 32.962C30.1507 32.0279 32.7962 28.7097 32.8054 24.9607C32.8152 20.8721 32.8054 16.7835 32.8098 12.695C32.8103 11.985 32.7342 11.287 32.5549 10.6015C31.5843 6.89157 28.2525 4.30732 24.4196 4.30025C20.6671 4.29372 16.9147 4.30025 13.1628 4.29753C8.46635 4.29372 4.73454 7.99491 4.71552 12.6885C4.70737 14.7015 4.71389 16.715 4.71389 18.728V18.7285Z" fill="black"/>
<path d="M29.8448 18.813C29.8448 20.8673 29.854 22.9217 29.8426 24.9755C29.828 27.6887 27.3732 30.1831 24.6674 30.2C20.7916 30.2239 16.9158 30.2288 13.04 30.2082C10.0826 30.1924 7.68057 27.749 7.67514 24.784C7.66699 20.7792 7.66699 16.7744 7.67894 12.7696C7.68818 9.7768 10.1489 7.28504 13.1405 7.266C16.8299 7.2426 20.5194 7.23879 24.2088 7.26654C27.4765 7.29102 29.8459 9.70444 29.8551 12.9611C29.8611 14.9116 29.8562 16.862 29.8562 18.8124H29.8448V18.813ZM10.801 18.492C10.6342 22.9712 14.341 26.791 18.857 26.7186C23.1556 26.6501 26.6526 23.1714 26.7494 18.8853C26.8521 14.361 23.092 10.6103 18.7113 10.7256C14.0388 10.848 10.8026 13.9116 10.8005 18.4925L10.801 18.492ZM11.1825 12.743C12.0998 12.743 12.8585 12.0085 12.8645 11.1135C12.8704 10.1799 12.1183 9.41011 11.1852 9.39542C10.2152 9.38073 9.47502 10.0858 9.46034 11.0401C9.44458 12.0352 10.1598 12.743 11.1825 12.743Z" fill="black"/>
<path d="M14.3938 18.4979C14.4215 15.9083 16.2008 14.3098 19.0158 14.3468C21.1901 14.3751 23.1448 16.4376 23.1307 18.6884C23.115 21.1453 21.0749 23.1344 18.6109 23.0952C16.3203 23.0587 14.3677 20.9299 14.3938 18.4979Z" fill="black"/>
</svg>
