<svg width="316" height="166" viewBox="0 0 316 166" fill="none" xmlns="http://www.w3.org/2000/svg">
<g clip-path="url(#clip0_255_369)">
<path d="M231.08 18.5205H140.778L137.509 47.0728H181.389L112.334 155.225H210.618L213.889 126.675H162.027L231.08 18.5205Z" fill="black"/>
<path d="M252.043 126.675L264.189 18.5205H236.193L220.797 155.225H282.793L286.061 126.675H252.043Z" fill="black"/>
<path d="M313.199 125.459C304.127 116.829 272.905 110.618 231.066 108.163C242.124 106.539 252.411 104.664 261.674 102.559C275.31 99.4598 285.997 96.0338 293.439 92.376C301.361 88.4842 305.318 84.4266 305.207 80.3153C305.154 78.362 304.175 76.4673 302.297 74.6824C294.749 67.5035 272.421 61.9901 241.842 58.9322C246.377 57.1911 250.71 55.411 254.818 53.5943C281.878 41.6311 296.029 29.4875 294.662 19.397C294.236 16.2611 292.339 13.4276 289.02 10.9745C280.193 4.45152 260.901 0.576764 234.696 0.0646817C207.79 -0.46447 175.844 2.41538 142.309 8.3848C103.096 15.3662 66.7402 25.7346 39.9355 37.5832C12.8732 49.5465 -1.27775 61.6901 0.0918467 71.7806C0.517891 74.9165 2.41463 77.75 5.73393 80.2031C7.24555 81.3199 9.06526 82.3612 11.1762 83.3195C7.97729 85.8628 6.39586 88.4598 6.46808 91.0739C6.52103 93.0271 7.50069 94.9218 9.37818 96.7068C18.0989 104.998 46.5355 111.072 84.6365 113.701C71.8431 115.442 59.986 117.49 49.4023 119.809C35.1551 122.93 23.9865 126.371 16.2045 130.041C7.92674 133.942 3.78664 138.01 3.89977 142.126C3.95032 144.004 4.89388 145.828 6.69915 147.547C18.5803 158.849 68.4443 166.004 130.404 166.004C140.241 166.004 150.394 165.823 160.74 165.45C202.278 163.953 241.257 159.6 270.495 153.197C284.743 150.076 295.911 146.635 303.693 142.965C311.971 139.063 316.111 134.996 315.998 130.88C315.948 129.002 315.006 127.178 313.199 125.459ZM6.53788 79.0863C3.52909 76.8648 1.81528 74.3434 1.44219 71.5928C0.809142 66.9158 3.95513 61.6535 10.7935 55.9524C17.5404 50.3292 27.5272 44.5744 40.4794 38.8488C67.1879 27.0417 103.433 16.7049 142.542 9.74304C173.401 4.25156 202.899 1.3839 228.336 1.3839C230.476 1.3839 232.587 1.40341 234.667 1.44487C260.595 1.95207 279.611 5.73173 288.214 12.0889C291.222 14.3103 292.936 16.8317 293.309 19.5823C293.942 24.2593 290.796 29.5216 283.958 35.2228C277.211 40.8459 267.224 46.6008 254.272 52.3263C249.398 54.482 244.203 56.5864 238.735 58.6323C214.64 56.3937 185.732 55.6427 155.035 56.7497C115.278 58.1836 77.9762 62.4753 49.9993 68.8324C36.3634 71.9318 25.6762 75.3578 18.2312 79.0156C15.9759 80.1251 14.0406 81.2468 12.4303 82.3782C10.1171 81.3736 8.14337 80.2763 6.53307 79.0863H6.53788ZM235.743 59.7345C211.81 68.4301 182.889 75.9675 152.209 81.4297C118.759 87.3845 86.9015 90.2546 60.0847 89.7303C40.0317 89.3377 24.114 86.987 13.9491 83.0001C20.8116 78.4864 33.2535 74.0532 50.3001 70.1785C78.1976 63.8384 115.41 59.5589 155.085 58.1275C164.415 57.791 173.677 57.6252 182.757 57.6252C201.573 57.6252 219.589 58.3396 235.743 59.732V59.7345ZM61.0331 110.111C34.7002 106.878 16.6859 101.759 10.3121 95.6997C8.70902 94.1756 7.87378 92.6052 7.83046 91.0373C7.76547 88.7061 9.40706 86.3164 12.606 83.9389C22.925 88.1989 39.3289 90.7081 60.0582 91.1153C62.1475 91.1568 64.2657 91.1763 66.4152 91.1763C91.9322 91.1763 121.517 88.3013 152.447 82.7952C184.384 77.1111 214.426 69.1763 238.959 60.0246C242.983 60.4002 246.885 60.8171 250.642 61.2805C276.975 64.5139 294.989 69.6323 301.363 75.6919C302.966 77.216 303.802 78.7863 303.845 80.3543C304.04 87.4308 288.56 95.0315 261.378 101.211C250.211 103.749 237.548 105.956 223.833 107.782C204.016 106.851 182.083 106.731 159.163 107.558C135.425 108.414 112.524 110.201 91.7974 112.774C80.8358 112.164 70.4879 111.274 61.0355 110.114L61.0331 110.111ZM215.495 108.829C197.165 111.001 177.211 112.515 156.587 113.259C137.131 113.962 117.964 113.923 100.167 113.179C118.626 111.128 138.6 109.682 159.209 108.938C169.398 108.57 179.507 108.39 189.4 108.39C198.311 108.39 207.044 108.538 215.497 108.829H215.495ZM270.207 151.843C241.045 158.23 202.15 162.57 160.689 164.065C124.061 165.387 88.4444 164.304 60.3976 161.022C32.7938 157.788 14.055 152.646 7.63308 146.537C6.0998 145.079 5.30307 143.582 5.26215 142.087C5.06959 135.013 21.2641 127.385 49.6887 121.16C62.1572 118.429 76.4068 116.073 91.8744 114.152C103.517 114.803 115.954 115.144 128.926 115.144C137.933 115.144 147.202 114.978 156.636 114.639C180.417 113.781 203.318 111.901 223.874 109.167C236.631 109.767 248.632 110.709 259.498 111.981C287.102 115.215 305.84 120.358 312.262 126.466C313.793 127.924 314.592 129.422 314.633 130.916C314.826 137.99 298.631 145.618 270.207 151.843Z" fill="black"/>
<path d="M70.9328 154.964L138.354 18.5205H107.431L69.9556 96.8081L50.0615 18.5205H20.6523L57.4438 154.964H70.9328Z" fill="black"/>
</g>
<defs>
<clipPath id="clip0_255_369">
<rect width="316" height="166" fill="white"/>
</clipPath>
</defs>
</svg>
