<svg width="122" height="64" viewBox="0 0 122 64" fill="none" xmlns="http://www.w3.org/2000/svg">
<g clip-path="url(#clip0_318_208)">
<path d="M89.2144 7.14035H54.3509L53.0889 18.1484H70.03L43.3694 59.8455H81.3145L82.5774 48.8384H62.5547L89.2144 7.14035Z" fill="white"/>
<path d="M97.3077 48.8384L101.997 7.14035H91.1882L85.2444 59.8455H109.179L110.441 48.8384H97.3077Z" fill="white"/>
<path d="M120.919 48.3697C117.416 45.0425 105.362 42.648 89.209 41.7013C93.4782 41.0752 97.45 40.3522 101.026 39.5408C106.29 38.3459 110.417 37.025 113.29 35.6148C116.348 34.1144 117.876 32.55 117.833 30.9649C117.813 30.2118 117.435 29.4814 116.71 28.7932C113.795 26.0254 105.175 23.8997 93.3695 22.7208C95.1203 22.0496 96.793 21.3633 98.3793 20.6628C108.826 16.0505 114.29 11.3686 113.762 7.47833C113.598 6.26931 112.865 5.17687 111.584 4.23109C108.176 1.71622 100.728 0.222336 90.6104 0.0249066C80.2227 -0.179104 67.8891 0.931201 54.9421 3.23266C39.8029 5.92428 25.7668 9.92175 15.4182 14.4899C4.97008 19.1022 -0.49326 23.7841 0.03551 27.6744C0.199996 28.8834 0.932282 29.9759 2.21378 30.9216C2.79738 31.3522 3.49993 31.7537 4.31492 32.1231C3.07989 33.1037 2.46934 34.105 2.49722 35.1128C2.51766 35.8658 2.89589 36.5963 3.62074 37.2845C6.98758 40.481 17.9663 42.8229 32.6762 43.8363C27.7369 44.5076 23.1592 45.2973 19.0731 46.1914C13.5726 47.3948 9.26064 48.7213 6.25623 50.1362C3.06037 51.6404 1.46198 53.2086 1.50566 54.7956C1.52517 55.5195 1.88946 56.2227 2.58643 56.8855C7.17344 61.243 26.4248 64.0014 50.3458 64.0014C54.1438 64.0014 58.0636 63.9318 62.0577 63.788C78.0946 63.2107 93.1437 61.5326 104.432 59.0638C109.932 57.8604 114.244 56.5339 117.249 55.119C120.445 53.6147 122.043 52.0466 121.999 50.4596C121.98 49.7357 121.616 49.0325 120.919 48.3697ZM2.52417 30.4911C1.36255 29.6346 0.700887 28.6625 0.556846 27.602C0.312441 25.7988 1.52703 23.77 4.16717 21.572C6.77199 19.404 10.6276 17.1853 15.6282 14.9778C25.9397 10.4257 39.933 6.44042 55.0323 3.75632C66.9458 1.63913 78.3344 0.533522 88.1552 0.533522C88.9813 0.533522 89.7963 0.541043 90.5993 0.557026C100.61 0.752575 107.951 2.20979 111.272 4.66073C112.434 5.5172 113.096 6.48931 113.24 7.54978C113.484 9.35297 112.27 11.3818 109.629 13.5798C107.025 15.7478 103.169 17.9665 98.1684 20.174C96.2866 21.0051 94.2811 21.8164 92.1698 22.6052C82.8675 21.7421 71.7066 21.4526 59.8553 21.8794C44.5061 22.4322 30.1048 24.0868 19.3036 26.5378C14.0391 27.7327 9.91301 29.0536 7.03869 30.4638C6.16794 30.8916 5.42079 31.324 4.79909 31.7603C3.90603 31.3729 3.14401 30.9499 2.52231 30.4911H2.52417ZM91.0146 23.0301C81.7746 26.3827 70.6091 29.2886 58.7643 31.3945C45.8499 33.6904 33.5506 34.7969 23.1973 34.5948C15.4553 34.4434 9.3099 33.5371 5.38548 32C8.0349 30.2598 12.8384 28.5506 19.4197 27.0567C30.1903 24.6124 44.5572 22.9624 59.8748 22.4106C63.4768 22.2808 67.0527 22.2169 70.558 22.2169C77.8223 22.2169 84.7781 22.4924 91.0146 23.0292V23.0301ZM23.5635 42.4525C13.3969 41.2058 6.44209 39.2325 3.98131 36.8962C3.36239 36.3086 3.03993 35.7032 3.0232 35.0987C2.99811 34.1999 3.63189 33.2786 4.86693 32.3619C8.85082 34.0044 15.184 34.9718 23.1871 35.1288C23.9937 35.1448 24.8115 35.1523 25.6414 35.1523C35.4929 35.1523 46.9148 34.0438 58.8563 31.921C71.1862 29.7296 82.7848 26.6703 92.2562 23.142C93.81 23.2868 95.3164 23.4475 96.767 23.6262C106.934 24.8728 113.888 26.8461 116.349 29.1824C116.968 29.77 117.291 30.3754 117.307 30.9799C117.383 33.7082 111.406 36.6386 100.912 39.0209C96.6007 39.9996 91.7116 40.8505 86.4165 41.5546C78.7656 41.1955 70.2978 41.1494 61.4491 41.4681C52.2843 41.7981 43.443 42.4872 35.4408 43.4791C31.2088 43.2441 27.2137 42.9009 23.5644 42.4534L23.5635 42.4525ZM83.1974 41.9579C76.1208 42.7956 68.4169 43.3794 60.4547 43.6662C52.9432 43.9369 45.5432 43.9219 38.672 43.6352C45.7988 42.8445 53.5101 42.287 61.4667 42.0003C65.4004 41.8583 69.3035 41.7887 73.1229 41.7887C76.5631 41.7887 79.9346 41.8461 83.1983 41.9579H83.1974ZM104.32 58.542C93.0619 61.0042 78.0454 62.6777 62.0382 63.254C47.8971 63.7635 34.1463 63.3461 23.3181 62.0807C12.6609 60.8341 5.42636 58.8513 2.947 56.4963C2.35504 55.9341 2.04744 55.3568 2.03164 54.7805C1.9573 52.0532 8.20961 49.1124 19.1837 46.7122C23.9974 45.6593 29.4989 44.7511 35.4705 44.0103C39.9656 44.2613 44.7672 44.3929 49.7752 44.3929C53.2527 44.3929 56.8314 44.329 60.4733 44.1983C69.6547 43.8674 78.4961 43.1425 86.4323 42.0886C91.3576 42.3199 95.991 42.6828 100.186 43.1735C110.843 44.4202 118.078 46.4029 120.557 48.758C121.148 49.3202 121.457 49.8974 121.472 50.4737C121.547 53.2011 115.294 56.1418 104.32 58.542Z" fill="white"/>
<path d="M27.3855 59.7449L53.4151 7.14035H41.4764L27.0082 37.3235L19.3275 7.14035H7.97339L22.1777 59.7449H27.3855Z" fill="white"/>
</g>
<defs>
<clipPath id="clip0_318_208">
<rect width="122" height="64" fill="white"/>
</clipPath>
</defs>
</svg>
