<svg width="1065" height="302" viewBox="0 0 1065 302" fill="none" xmlns="http://www.w3.org/2000/svg">
<path d="M41.3744 45.9328V34.8559H91.2304V70.6693H75.8032L78.867 55.1341H77.286C73.3286 63.3436 63.8326 71.9557 44.8408 71.9557C18.7197 71.9557 2.99792 56.2241 2.99792 36.0441C2.99792 15.8641 18.7295 0.132492 47.8064 0.132492C76.8834 0.132492 89.7476 13.193 93.214 29.121H75.6068C72.6411 20.9115 64.1272 14.283 47.8064 14.283C29.8064 14.283 20.3007 23.779 20.3007 36.0441C20.3007 48.3092 29.7966 58.306 48.0029 58.306C62.939 58.306 71.0503 52.4729 74.3204 45.9426H41.3744V45.9328Z" fill="white"/>
<path d="M183.037 70.6593H162.062L154.54 52.8557C152.458 48.1029 149.59 46.6201 142.864 46.6201H123.076V70.6593H105.469V1.40892H151.27C170.261 1.40892 179.463 10.6102 179.463 23.17C179.463 34.4433 171.646 42.859 161.659 43.6446V45.3238C168.779 45.6184 172.54 48.0931 176.399 56.4008L183.027 70.6495L183.037 70.6593ZM149.6 35.5431C157.81 35.5431 161.865 31.3893 161.865 25.35C161.865 19.3107 157.81 15.2551 149.6 15.2551H122.202V35.5333H149.6V35.5431Z" fill="white"/>
<path d="M252.69 70.6593L247.545 59.2878H208.569L203.424 70.6593H184.726L217.672 1.40892H238.343L271.289 70.6593H252.69ZM214.805 45.6282H241.319L232.608 26.44C229.741 19.7133 228.847 15.9523 228.847 12.1913V11.8966H227.266V12.1913C227.266 15.9523 226.373 19.7133 223.505 26.44L214.805 45.6282Z" fill="white"/>
<path d="M325.005 1.40892C344.595 1.40892 353.993 10.9048 353.993 25.35C353.993 39.7952 344.595 49.3893 325.005 49.3893H298.098V70.6593H280.491V1.40892H325.005ZM324.307 35.2387C332.419 35.2387 336.376 31.2813 336.376 25.35C336.376 19.4188 332.419 15.5595 324.307 15.5595H297.204V35.2485H324.307V35.2387Z" fill="white"/>
<path d="M428.183 1.40892H445.79V70.6593H428.183V42.1716H383.964V70.6593H366.356V1.40892H383.964V27.53H428.183V1.40892Z" fill="white"/>
<path d="M459.352 70.6593V56.5088H481.014V15.5497H459.352V1.39909H520.284V15.5497H498.622V56.5088H520.284V70.6593H459.352Z" fill="white"/>
<path d="M526.913 36.0342C526.913 15.7559 542.546 0.122513 572.222 0.122513C600.317 0.122513 614.861 13.0849 617.63 29.1111H600.023C598.245 21.8934 590.134 14.4695 572.222 14.4695C554.311 14.4695 544.52 23.9654 544.52 36.0342C544.52 48.1029 554.016 57.5988 572.222 57.5988C590.429 57.5988 598.235 50.1749 600.023 42.9572H617.63C614.959 59.278 600.514 71.9458 572.222 71.9458C542.546 71.9458 526.913 56.3124 526.913 36.0342Z" fill="white"/>
<path d="M762.229 10.3254H775.221C778.609 10.3254 781.653 10.8557 784.373 11.9065C787.093 12.9572 789.401 14.5578 791.296 16.7182C793.191 18.8688 794.655 21.5595 795.676 24.7903C796.697 28.021 797.218 31.7919 797.218 36.093C797.218 40.3942 796.628 44.607 795.45 48.0931C794.272 51.5791 792.602 54.5153 790.452 56.9016C788.301 59.2878 785.738 61.0947 782.763 62.3222C779.787 63.5497 776.537 64.1683 772.992 64.1683H762.229V10.3353V10.3254ZM773.384 61.8508C775.692 61.8508 777.764 61.458 779.61 60.6626C781.457 59.8672 783.038 58.5219 784.344 56.6266C785.65 54.7314 786.651 52.2076 787.339 49.0554C788.026 45.9032 788.38 41.9654 788.38 37.2518C788.38 32.5382 788.036 28.6004 787.339 25.4482C786.641 22.296 785.65 19.7722 784.344 17.877C783.038 15.9817 781.457 14.6364 779.61 13.841C777.764 13.0456 775.692 12.6528 773.384 12.6528H770.694V61.8705H773.384V61.8508Z" fill="white"/>
<path d="M806.831 10.3254H836.056V16.4826L815.296 12.2502V34.9343L833.748 33.3925V38.3909L815.296 36.8492V62.224L836.056 58.3746V64.1389H806.831V10.3058V10.3254Z" fill="white"/>
<path d="M856.825 64.2371C851.65 64.2371 847.849 63.2158 845.444 61.1634C843.028 59.111 841.83 56.3811 841.83 52.9834V47.3467H849.519V52.2076C849.519 55.5955 850.245 58.0701 851.709 59.6118C853.172 61.1536 855.254 61.9294 857.974 61.9294C860.9 61.9294 863.1 61.2812 864.583 59.985C866.065 58.6888 866.812 57.0881 866.812 55.1929C866.812 53.2976 866.242 51.4711 865.123 49.5758C863.993 47.6806 862.599 45.7952 860.93 43.9196C859.26 42.0439 857.443 40.1781 855.47 38.3025C853.496 36.4269 851.679 34.5316 850.01 32.6069C848.34 30.6822 846.946 28.7772 845.817 26.8819C844.687 24.9866 844.128 23.0619 844.128 21.1176C844.128 19.9195 844.511 18.6724 845.277 17.3762C846.042 16.0799 847.182 14.9015 848.694 13.8508C850.206 12.8 852.092 11.9457 854.35 11.2682C856.609 10.5906 859.221 10.2567 862.196 10.2567C866.812 10.2567 870.141 11.1208 872.193 12.8492C874.245 14.5775 875.267 16.8459 875.267 19.6446V25.2812H867.578V20.7935C867.578 17.7984 867.028 15.6871 865.928 14.44C864.828 13.1928 863.198 12.5644 861.047 12.5644C858.121 12.5644 855.98 13.1241 854.625 14.2534C853.27 15.3729 852.583 16.6888 852.583 18.1814C852.583 20.0275 853.142 21.9032 854.272 23.7984C855.401 25.6937 856.795 27.5791 858.465 29.4547C860.134 31.3303 861.951 33.1961 863.925 35.0718C865.898 36.9474 867.715 38.8426 869.384 40.7673C871.054 42.692 872.448 44.5971 873.578 46.4924C874.707 48.3876 875.267 50.3123 875.267 52.2567C875.267 53.7592 874.894 55.2322 874.147 56.6757C873.401 58.1192 872.272 59.4056 870.759 60.5349C869.247 61.6544 867.332 62.5578 865.034 63.2354C862.727 63.913 859.987 64.2469 856.805 64.2469L856.825 64.2371Z" fill="white"/>
<path d="M884.124 10.3254H892.579V64.1585H884.124V10.3254Z" fill="white"/>
<path d="M921.421 64.2371C918.7 64.2371 916.177 63.7166 913.849 62.6659C911.512 61.6151 909.489 60.0243 907.771 57.9032C906.052 55.7821 904.697 53.0914 903.695 49.841C902.694 46.5906 902.193 42.7706 902.193 38.3712C902.193 33.9719 902.772 29.7199 903.921 26.2239C905.07 22.728 906.612 19.7919 908.537 17.4154C910.461 15.039 912.661 13.2518 915.146 12.0537C917.63 10.8557 920.232 10.2567 922.952 10.2567C927.204 10.2567 930.583 11.4449 933.067 13.8115C935.551 16.1781 936.799 19.3893 936.799 23.4449V26.3712H929.11V24.1912C929.11 22.1094 928.913 20.332 928.53 18.8492C928.147 17.3762 927.617 16.1781 926.949 15.2551C926.281 14.332 925.535 13.6544 924.72 13.2223C923.895 12.7902 923.051 12.5644 922.186 12.5644C920.753 12.5644 919.368 12.9375 918.033 13.6839C916.697 14.4302 915.509 15.7362 914.458 17.6118C913.407 19.4776 912.573 22.0112 911.954 25.2027C911.335 28.3942 911.031 32.4105 911.031 37.242C911.031 42.0734 911.365 45.8344 912.033 48.9474C912.7 52.0603 913.584 54.5546 914.684 56.4302C915.784 58.296 917.051 59.6217 918.494 60.3975C919.928 61.1732 921.421 61.5562 922.952 61.5562C923.974 61.5562 924.887 61.4285 925.682 61.1732C926.478 60.9179 927.126 60.6135 927.646 60.2501C928.206 59.8377 928.697 59.3762 929.11 58.8656V38.4891H921.421V36.1814H936.799V56.7935C935.777 58.2272 934.52 59.4842 933.028 60.5644C931.751 61.4875 930.141 62.332 928.226 63.098C926.301 63.8639 924.033 64.2469 921.421 64.2469V64.2371Z" fill="white"/>
<path d="M949.869 15.3336H949.486L953.335 64.1683H947.571V10.3353H956.419L976.795 44.9408H977.178L974.487 10.3353H979.869V64.9343H979.103L949.879 15.3336H949.869Z" fill="white"/>
<path d="M991.397 10.3254H1020.62V16.4826L999.862 12.2502V34.9343L1018.31 33.3925V38.3909L999.862 36.8492V62.224L1020.62 58.3746V64.1389H991.397V10.3058V10.3254Z" fill="white"/>
<path d="M1029.85 10.3254H1041.77C1045.21 10.3254 1048.17 10.6691 1050.65 11.3663C1053.14 12.0537 1055.18 13.0161 1056.77 14.2534C1058.36 15.4907 1059.53 16.9441 1060.26 18.6331C1061.01 20.3222 1061.38 22.1683 1061.38 24.1716C1061.38 26.1749 1061.09 27.9916 1060.5 29.6315C1059.91 31.2714 1059.11 32.7052 1058.08 33.9425C1057.05 35.17 1055.83 36.2011 1054.42 37.0161C1053.01 37.841 1051.49 38.4302 1049.85 38.7837L1064.08 64.1585H1054.84L1041 39.5497H1038.31V64.1585H1029.85V10.3254ZM1040.23 37.242C1044.28 37.242 1047.28 36.26 1049.23 34.2763C1051.17 32.3025 1052.15 29.1896 1052.15 24.9277C1052.15 20.6659 1051.18 17.5627 1049.23 15.5791C1047.28 13.6053 1044.28 12.6135 1040.23 12.6135H1038.31V37.2223H1040.23V37.242Z" fill="white"/>
<path d="M389.865 97.0063H0.150146V228.181H389.865V97.0063Z" fill="white"/>
<path d="M425.512 153.962C422.684 153.962 420.052 153.412 417.617 152.322C415.181 151.232 413.08 149.573 411.293 147.363C409.505 145.154 408.091 142.355 407.05 138.967C406.009 135.579 405.489 131.602 405.489 127.016C405.489 122.43 406.088 118.011 407.296 114.358C408.494 110.715 410.095 107.651 412.098 105.177C414.101 102.702 416.399 100.846 418.991 99.589C421.584 98.3418 424.294 97.7133 427.122 97.7133C431.551 97.7133 435.067 98.9801 437.659 101.504C440.252 104.028 441.548 107.455 441.548 111.785V115.694H433.535V112.581C433.535 110.352 433.338 108.437 432.936 106.856C432.533 105.275 431.983 103.988 431.296 102.996C430.599 102.015 429.823 101.278 428.969 100.816C428.114 100.345 427.23 100.119 426.327 100.119C424.834 100.119 423.391 100.512 421.996 101.288C420.602 102.064 419.365 103.429 418.275 105.373C417.175 107.317 416.311 109.959 415.672 113.278C415.034 116.597 414.71 120.78 414.71 125.818C414.71 130.6 415.054 134.578 415.751 137.779C416.448 140.97 417.361 143.533 418.51 145.448C419.659 147.373 420.985 148.728 422.478 149.533C423.97 150.339 425.522 150.741 427.122 150.741C429.312 150.741 431.168 150.093 432.69 148.797C434.212 147.501 435.45 146.077 436.412 144.525C437.532 142.718 438.445 140.646 439.132 138.319L441.538 139.095C440.792 141.913 439.721 144.378 438.337 146.519C437.748 147.461 437.041 148.365 436.216 149.258C435.391 150.142 434.458 150.938 433.407 151.645C432.356 152.352 431.188 152.911 429.882 153.324C428.576 153.736 427.122 153.952 425.512 153.952V153.962Z" fill="white"/>
<path d="M450.347 97.8017H462.759C466.334 97.8017 469.417 98.1651 472.01 98.8819C474.602 99.5988 476.723 100.6 478.383 101.887C480.042 103.173 481.25 104.686 482.026 106.453C482.802 108.211 483.185 110.136 483.185 112.217C483.185 114.299 482.88 116.195 482.262 117.903C481.643 119.612 480.808 121.105 479.738 122.391C478.668 123.677 477.401 124.738 475.928 125.592C474.455 126.447 472.874 127.065 471.165 127.438L485.983 153.874H476.37L461.954 128.244H459.155V153.874H450.347V97.8017ZM461.158 125.838C465.381 125.838 468.504 124.807 470.527 122.754C472.56 120.702 473.571 117.451 473.571 113.023C473.571 108.594 472.56 105.343 470.527 103.291C468.494 101.239 465.371 100.208 461.158 100.208H459.155V125.838H461.158Z" fill="white"/>
<path d="M493.201 97.8017H523.643V104.214L502.01 99.805V123.432L521.237 121.831V127.036L502.01 125.435V151.87L523.643 147.864V153.874H493.201V97.8017Z" fill="white"/>
<path d="M543.676 99.805L550.883 96.9965H551.286L567.312 153.874H558.101L553.692 137.533H537.273L533.669 153.874H528.062L543.685 99.805H543.676ZM553.044 135.049L544.874 104.607H544.471L537.823 135.049H553.044Z" fill="white"/>
<path d="M580.52 99.805L566.104 105.815V97.8017H603.754V105.815L589.339 99.805V153.874H580.53V99.805H580.52Z" fill="white"/>
<path d="M610.962 97.8017H619.771V153.874H610.962V97.8017Z" fill="white"/>
<path d="M625.78 97.8017H634.992L648.612 139.458H649.014L660.631 97.8017H666.239L646.609 154.679H645.803L625.78 97.8017Z" fill="white"/>
<path d="M672.249 97.8017H702.69V104.214L681.057 99.805V123.432L700.285 121.831V127.036L681.057 125.435V151.87L702.69 147.864V153.874H672.249V97.8017Z" fill="white"/>
<path d="M410.36 227.082V167.848H440.232C463.839 167.848 476.615 180.623 476.615 197.465C476.615 214.306 463.839 227.082 440.232 227.082H410.36ZM425.424 214.817H440.232C454.108 214.817 461.551 207.285 461.551 197.474C461.551 187.664 454.108 180.132 440.232 180.132H425.424V214.826V214.817Z" fill="white"/>
<path d="M546.415 179.69H502.667V191.71H540.494V202.286H502.667V215.229H546.415V227.072H487.604V167.838H546.415V179.681V179.69Z" fill="white"/>
<path d="M578.399 227.082L550.982 167.848H567.901L583.977 205.674C586.343 211.763 586.942 214.306 586.942 217.861V218.116H588.298V217.861C588.298 214.306 588.887 211.772 591.263 205.674L607.339 167.848H624.18L596.762 227.082H578.399Z" fill="white"/>
<path d="M691.28 179.69H647.532V191.71H685.358V202.286H647.532V215.229H691.28V227.072H632.468V167.838H691.28V179.681V179.69Z" fill="white"/>
<path d="M702.867 227.082V167.848H717.931V214.551H758.291V227.072H702.867V227.082Z" fill="white"/>
<path d="M760.402 197.465C760.402 180.201 773.856 166.748 799.751 166.748C825.646 166.748 839.1 180.201 839.1 197.465C839.1 214.728 825.646 228.181 799.751 228.181C773.856 228.181 760.402 214.728 760.402 197.465ZM824.036 197.465C824.036 187.144 815.915 179.023 799.751 179.023C783.587 179.023 775.466 187.144 775.466 197.465C775.466 207.785 783.587 215.907 799.751 215.907C815.915 215.907 824.036 207.785 824.036 197.465Z" fill="white"/>
<path d="M888.17 167.848C904.923 167.848 912.965 175.969 912.965 188.322C912.965 200.676 904.923 208.885 888.17 208.885H865.152V227.082H850.088V167.848H888.16H888.17ZM887.581 196.787C894.524 196.787 897.902 193.399 897.902 188.322C897.902 183.245 894.514 179.946 887.581 179.946H864.396V196.787H887.581Z" fill="white"/>
<path d="M982.344 179.69H938.596V191.71H976.422V202.286H938.596V215.229H982.344V227.072H923.532V167.838H982.344V179.681V179.69Z" fill="white"/>
<path d="M1060.27 227.082H1042.33L1035.9 211.851C1034.12 207.785 1031.67 206.519 1025.91 206.519H1008.99V227.082H993.931V167.848H1033.1C1049.35 167.848 1057.22 175.713 1057.22 186.466C1057.22 196.109 1050.53 203.307 1041.99 203.985V205.419C1048.08 205.674 1051.3 207.785 1054.6 214.895L1060.26 227.082H1060.27ZM1031.68 197.042C1038.7 197.042 1042.17 193.488 1042.17 188.322C1042.17 183.157 1038.7 179.69 1031.68 179.69H1008.24V197.033H1031.68V197.042Z" fill="white"/>
<path d="M1064.08 89.985H725.355V154.679H1064.08V89.985Z" fill="white"/>
<path d="M17.345 301.291L1.59375 251.857H12.1109L22.7754 286.885C23.6199 289.998 24.0422 292.532 24.0422 295.075V295.429H25.1027V295.075C25.1027 292.532 25.3875 289.988 26.3008 286.885L35.345 260.686H46.4317L55.3974 286.885C56.3204 289.998 56.5954 292.532 56.5954 295.075V295.429H57.6559V295.075C57.6559 292.532 58.0782 289.988 58.9227 286.885L69.5872 251.857H80.183L64.363 301.291H51.8622L43.034 276.437C41.9735 273.118 41.4137 270.997 41.4137 266.764V266.548H40.3532V266.764C40.3532 270.997 39.7836 273.118 38.7329 276.437L29.836 301.291H17.3352H17.345Z" fill="white"/>
<path d="M136.903 259.841H98.5562V272.548H131.964V279.825H98.5562V293.317H136.903V301.301H88.7362V251.867H136.903V259.851V259.841Z" fill="white"/>
<path d="M191.06 276.221C198.543 276.859 202.854 281.239 202.854 288.015C202.854 296.136 197.63 301.291 184.707 301.291H147.636V251.857H184.785C196.01 251.857 201.096 256.944 201.096 264.073C201.096 270.142 197.139 274.316 191.07 275.023V276.221H191.06ZM157.23 259.763V272.617H183.293C188.664 272.617 191.276 270.005 191.276 266.195C191.276 262.384 188.664 259.772 183.293 259.772H157.23V259.763ZM184.206 293.376C190.353 293.376 193.034 290.764 193.034 286.669C193.034 282.574 190.353 279.815 184.206 279.815H157.23V293.376H184.206Z" fill="white"/>
<path d="M230.173 251.867H242.104C245.208 251.867 248.016 252.348 250.51 253.311C253.005 254.273 255.126 255.746 256.864 257.72C258.602 259.694 259.947 262.168 260.89 265.134C261.833 268.1 262.304 271.556 262.304 275.514C262.304 279.471 261.764 283.33 260.684 286.532C259.604 289.733 258.072 292.424 256.098 294.614C254.124 296.803 251.767 298.463 249.037 299.592C246.307 300.722 243.322 301.291 240.072 301.291H230.183V251.857L230.173 251.867ZM240.415 299.18C242.537 299.18 244.442 298.817 246.131 298.09C247.83 297.363 249.273 296.126 250.471 294.378C251.669 292.64 252.592 290.322 253.221 287.425C253.859 284.529 254.173 280.915 254.173 276.584C254.173 272.254 253.859 268.64 253.221 265.743C252.582 262.846 251.669 260.528 250.471 258.79C249.273 257.052 247.82 255.815 246.131 255.078C244.432 254.352 242.527 253.979 240.415 253.979H237.941V299.17H240.415V299.18Z" fill="white"/>
<path d="M271.132 251.867H297.97V257.514L278.9 253.625V274.453L295.849 273.039V277.625L278.9 276.211V299.514L297.97 295.979V301.272H271.132V251.838V251.867Z" fill="white"/>
<path d="M317.031 301.37C312.278 301.37 308.792 300.427 306.582 298.542C304.373 296.656 303.263 294.152 303.263 291.029V285.854H310.324V290.322C310.324 293.435 310.992 295.704 312.337 297.118C313.682 298.542 315.597 299.249 318.091 299.249C320.772 299.249 322.795 298.65 324.16 297.461C325.525 296.273 326.213 294.8 326.213 293.062C326.213 291.324 325.692 289.645 324.661 287.907C323.62 286.168 322.344 284.43 320.812 282.712C319.28 280.993 317.61 279.275 315.794 277.556C313.977 275.838 312.308 274.1 310.776 272.332C309.244 270.565 307.967 268.817 306.926 267.069C305.885 265.33 305.375 263.563 305.375 261.776C305.375 260.676 305.728 259.527 306.435 258.339C307.142 257.15 308.193 256.07 309.578 255.108C310.962 254.145 312.7 253.35 314.772 252.731C316.844 252.113 319.24 251.799 321.97 251.799C326.203 251.799 329.267 252.594 331.152 254.175C333.037 255.766 333.98 257.848 333.98 260.42V265.596H326.92V261.471C326.92 258.722 326.409 256.777 325.397 255.628C324.386 254.479 322.893 253.91 320.91 253.91C318.229 253.91 316.265 254.43 315.018 255.461C313.771 256.493 313.142 257.7 313.142 259.075C313.142 260.774 313.663 262.493 314.694 264.231C315.725 265.969 317.011 267.707 318.543 269.425C320.075 271.144 321.744 272.862 323.561 274.581C325.378 276.299 327.047 278.037 328.579 279.805C330.111 281.573 331.388 283.321 332.429 285.069C333.46 286.807 333.98 288.574 333.98 290.362C333.98 291.736 333.636 293.092 332.959 294.417C332.271 295.743 331.24 296.931 329.856 297.962C328.461 298.993 326.713 299.818 324.592 300.437C322.471 301.056 319.957 301.37 317.041 301.37H317.031Z" fill="white"/>
<path d="M342.101 251.867H349.869V301.301H342.101V251.867Z" fill="white"/>
<path d="M376.343 301.37C373.849 301.37 371.532 300.889 369.391 299.926C367.25 298.964 365.384 297.501 363.813 295.556C362.232 293.602 360.985 291.137 360.072 288.152C359.159 285.167 358.697 281.661 358.697 277.615C358.697 273.569 359.227 269.671 360.288 266.46C361.348 263.249 362.762 260.548 364.52 258.368C366.288 256.188 368.311 254.548 370.589 253.448C372.867 252.348 375.263 251.799 377.758 251.799C381.666 251.799 384.759 252.889 387.047 255.059C389.326 257.229 390.474 260.175 390.474 263.897V266.587H383.414V264.584C383.414 262.669 383.237 261.039 382.884 259.684C382.53 258.329 382.049 257.229 381.44 256.384C380.831 255.54 380.144 254.921 379.388 254.519C378.632 254.116 377.856 253.92 377.06 253.92C375.745 253.92 374.468 254.263 373.25 254.951C372.023 255.638 370.933 256.836 369.97 258.555C369.008 260.273 368.242 262.591 367.672 265.527C367.103 268.463 366.828 272.145 366.828 276.584C366.828 281.023 367.132 284.47 367.741 287.327C368.35 290.195 369.165 292.483 370.177 294.201C371.188 295.92 372.357 297.128 373.672 297.844C374.988 298.551 376.353 298.905 377.767 298.905C378.71 298.905 379.545 298.787 380.271 298.551C380.998 298.316 381.597 298.031 382.069 297.707C382.589 297.334 383.031 296.902 383.414 296.44V277.723H376.353V275.602H390.474V294.525C389.532 295.841 388.383 297 387.018 297.982C385.839 298.826 384.366 299.602 382.609 300.309C380.841 301.016 378.759 301.37 376.363 301.37H376.343Z" fill="white"/>
<path d="M402.474 256.453H402.121L405.656 301.291H400.363V251.857H408.484L427.201 283.635H427.555L425.08 251.857H430.019V301.988H429.312L402.474 256.443V256.453Z" fill="white"/>
<path d="M440.605 251.867H467.443V257.514L448.373 253.625V274.453L465.322 273.039V277.625L448.373 276.211V299.514L467.443 295.979V301.272H440.605V251.838V251.867Z" fill="white"/>
<path d="M475.908 251.867H486.857C490.01 251.867 492.73 252.182 495.018 252.82C497.296 253.458 499.172 254.342 500.635 255.471C502.098 256.6 503.168 257.946 503.846 259.497C504.524 261.049 504.867 262.748 504.867 264.584C504.867 266.42 504.592 268.09 504.052 269.602C503.512 271.105 502.766 272.43 501.823 273.56C500.88 274.689 499.761 275.632 498.465 276.388C497.168 277.144 495.774 277.684 494.262 278.008L507.322 301.311H498.848L486.141 278.715H483.666V301.311H475.898V251.877L475.908 251.867ZM485.443 276.584C489.165 276.584 491.915 275.681 493.702 273.864C495.489 272.047 496.383 269.19 496.383 265.281C496.383 261.373 495.489 258.515 493.702 256.699C491.915 254.892 489.155 253.979 485.443 253.979H483.676V276.574H485.443V276.584Z" fill="white"/>
<path d="M1060 296H523V301H1060V296Z" fill="white"/>
</svg>
