<svg width="1018" height="227" viewBox="0 0 1018 227" fill="none" xmlns="http://www.w3.org/2000/svg">
<path d="M125.003 93.9758L76.6284 226.047H110.648L116.129 209.682H167.408L172.889 226.047H206.102L158.534 93.9758H124.995H125.003ZM124.522 184.486L141.773 132.331L159.023 184.486H124.514H124.522Z" fill="black"/>
<path d="M286.083 166.993L247.389 93.8135H214.65V226.047H247.226V152.227L286.409 226.047H318.659V93.8135H286.083V166.993Z" fill="black"/>
<path d="M379.44 94.1382V124.149H422.171L374.122 226.047H468.776V196.037H420.882L469.094 94.1382H379.44Z" fill="black"/>
<path d="M518.431 93.9758L470.056 226.047H504.076L509.557 209.682H560.836L566.317 226.047H599.53L551.962 93.9758H518.423H518.431ZM517.95 184.486L535.201 132.331L552.451 184.486H517.942H517.95Z" fill="black"/>
<path d="M684.029 93.6594H651.624V226.047H723.049V195.396H684.029V93.6594Z" fill="black"/>
<path d="M767.305 94.1382H734.737V226.047H767.305V94.1382Z" fill="black"/>
<path d="M823.51 93.9758L775.135 226.047H809.155L814.636 209.682H865.915L871.396 226.047H904.608L857.041 93.9758H823.502H823.51ZM823.029 184.486L840.279 132.331L857.53 184.486H823.021H823.029Z" fill="black"/>
<path d="M58.4073 93.9758L32.927 177.902L16.5165 128.361L0 178.95L15.3502 226.047H50.1858L92.7536 93.9758H58.4073Z" fill="black"/>
<path d="M984.589 128.54V166.993L945.895 93.8135H913.164V226.047H945.732V152.227L984.915 226.047H1017.17V182.205L984.589 128.54Z" fill="black"/>
</svg>
