<svg width="529" height="118" viewBox="0 0 529 118" fill="none" xmlns="http://www.w3.org/2000/svg">
<path d="M64.9905 48.8591L39.8398 117.524H57.5272L60.3768 109.016H87.0371L89.8868 117.524H107.154L82.4234 48.8591H64.9863H64.9905ZM64.7403 95.9161L73.7091 68.8003L82.6779 95.9161H64.7361H64.7403Z" fill="black"/>
<path d="M148.737 86.8212L128.62 48.7747H111.599V117.524H128.535V79.1444L148.907 117.524H165.674V48.7747H148.737V86.8212Z" fill="black"/>
<path d="M197.275 48.9436V64.5463H219.491L194.51 117.524H243.721V101.922H218.821L243.887 48.9436H197.275Z" fill="black"/>
<path d="M269.538 48.8591L244.387 117.524H262.075L264.924 109.016H291.584L294.434 117.524H311.702L286.971 48.8591H269.534H269.538ZM269.288 95.9161L278.256 68.8003L287.225 95.9161H269.283H269.288Z" fill="black"/>
<path d="M355.633 48.6946H338.786V117.524H375.92V101.588H355.633V48.6946Z" fill="black"/>
<path d="M398.93 48.9436H381.997V117.524H398.93V48.9436Z" fill="black"/>
<path d="M428.151 48.8591L403 117.524H420.688L423.537 109.016H450.198L453.047 117.524H470.315L445.584 48.8591H428.147H428.151ZM427.901 95.9161L436.87 68.8003L445.839 95.9161H427.897H427.901Z" fill="black"/>
<path d="M30.3666 48.8591L17.1191 92.4934L8.58711 66.7366L0 93.0378L7.98071 117.524H26.0921L48.2235 48.8591H30.3666Z" fill="black"/>
<path d="M511.898 66.8294V86.8212L491.781 48.7747H474.763V117.524H491.696V79.1444L512.067 117.524H528.834V94.7301L511.898 66.8294Z" fill="black"/>
</svg>
