<svg width="39" height="38" viewBox="0 0 39 38" fill="none" xmlns="http://www.w3.org/2000/svg">
<path d="M38.5758 18.9819C38.5758 22.9027 38.5774 26.8235 38.5758 30.7442C38.5742 34.0288 36.3424 36.8972 33.1646 37.6542C32.5765 37.7942 31.956 37.8522 31.3503 37.8533C23.558 37.866 15.7657 37.8666 7.97339 37.8596C3.90335 37.8559 0.770265 34.7268 0.764948 30.6516C0.755376 22.8707 0.754844 15.0904 0.764948 7.30957C0.770265 3.10506 3.88155 0.00783497 8.07176 0.00570557C15.8199 0.00251146 23.5676 -0.00121501 31.3157 0.000382049C34.6812 0.000914401 37.5926 2.199 38.3471 5.34466C38.5072 6.01117 38.5657 6.716 38.5694 7.40327C38.5901 11.2628 38.5795 15.1224 38.5795 18.9819H38.5763H38.5758ZM25.9993 31.5241C27.3106 31.5609 28.4193 31.136 29.5275 30.6473C30.985 30.0043 31.8592 28.947 32.1724 27.3771C32.4239 26.1165 32.3277 25.7614 31.236 25.1173C29.7997 24.2698 28.3417 23.4606 26.9043 22.6152C26.3082 22.2644 25.8052 22.3794 25.3692 22.8521C24.7199 23.5559 24.1036 24.2905 23.458 24.9986C22.8024 25.7172 22.5019 25.7646 21.6474 25.3153C18.0448 23.4212 15.2627 20.7009 13.376 17.0782C12.8512 16.0705 12.8841 15.7915 13.7376 15.017C14.3858 14.4292 15.0888 13.8996 15.7173 13.2921C16.349 12.6821 16.3543 12.2525 15.8949 11.5013C15.5339 10.9115 15.184 10.3142 14.8362 9.71633C14.2731 8.74905 13.7264 7.77165 13.1457 6.81449C13.0309 6.62497 12.8012 6.39286 12.6108 6.37955C11.3341 6.29278 10.0297 6.4642 9.1475 7.41391C7.60223 9.07751 6.76259 11.1228 7.21458 13.4098C7.53044 15.0084 8.02975 16.6225 8.74762 18.0812C11.6292 23.9381 16.0209 28.2289 22.1946 30.56C23.449 31.0338 24.697 31.5475 25.9998 31.5231L25.9993 31.5241Z" fill="black"/>
</svg>
