<svg width="72" height="72" viewBox="0 0 72 72" fill="none" xmlns="http://www.w3.org/2000/svg">
<path d="M71.3143 36.3936C71.3143 43.787 71.3173 51.1805 71.3143 58.574C71.3113 64.7678 67.1028 70.1766 61.1105 71.6041C60.0015 71.8681 58.8313 71.9775 57.6892 71.9795C42.9951 72.0036 28.301 72.0046 13.607 71.9916C5.93205 71.9846 0.0239428 66.0839 0.0139155 58.3993C-0.00413374 43.7268 -0.00513647 29.0554 0.0139155 14.3829C0.0239428 6.45437 5.89094 0.613896 13.7925 0.60988C28.4033 0.603857 43.0132 0.59683 57.624 0.599842C63.9703 0.600845 69.4603 4.7458 70.8831 10.6776C71.185 11.9345 71.2953 13.2636 71.3023 14.5596C71.3414 21.8376 71.3213 29.1156 71.3213 36.3936H71.3153H71.3143ZM47.5987 60.0446C50.0714 60.1139 52.1621 59.3128 54.2518 58.3913C57.0003 57.1786 58.6488 55.1849 59.2394 52.2245C59.7137 49.8474 59.5322 49.1778 57.4736 47.9631C54.7652 46.365 52.0157 44.8391 49.3053 43.245C48.1812 42.5834 47.2327 42.8003 46.4104 43.6917C45.1861 45.0188 44.0239 46.4041 42.8066 47.7393C41.5702 49.0945 41.0037 49.1838 39.3923 48.3366C32.5988 44.7648 27.3525 39.6351 23.7948 32.8038C22.8051 30.9035 22.8672 30.3774 24.4766 28.9168C25.6989 27.8086 27.0246 26.8097 28.2098 25.6643C29.401 24.5139 29.4111 23.7038 28.5447 22.2873C27.8638 21.175 27.204 20.0487 26.5483 18.9214C25.4864 17.0973 24.4555 15.2542 23.3606 13.4493C23.144 13.0919 22.7108 12.6542 22.3518 12.6291C19.9443 12.4655 17.4845 12.7887 15.821 14.5796C12.9071 17.7167 11.3238 21.5736 12.1761 25.8862C12.7717 28.9008 13.7133 31.9445 15.067 34.6951C20.5008 45.7396 28.7823 53.8307 40.4241 58.2266C42.7895 59.1201 45.143 60.0888 47.5997 60.0426L47.5987 60.0446Z" fill="black"/>
</svg>
